<mxfile host="app.diagrams.net" modified="2020-11-12T03:20:05.836Z" agent="5.0 (Macintosh; Intel Mac OS X 10_15_7) AppleWebKit/537.36 (KHTML, like Gecko) Chrome/86.0.4240.183 Safari/537.36" etag="QlDWZACbL-z_OTx7_SPF" version="13.9.2" type="github">
  <diagram id="UEAZaV06oQafjDegOS_-" name="Page-1">
    <mxGraphModel dx="570" dy="308" grid="1" gridSize="10" guides="1" tooltips="1" connect="1" arrows="1" fold="1" page="1" pageScale="1" pageWidth="827" pageHeight="1169" math="0" shadow="0">
      <root>
        <mxCell id="0" />
        <mxCell id="1" parent="0" />
        <mxCell id="EQKizvcPX6LPGZTY7q5G-1" value="" style="rounded=0;whiteSpace=wrap;html=1;" vertex="1" parent="1">
          <mxGeometry x="50" y="360" width="700" height="60" as="geometry" />
        </mxCell>
        <mxCell id="EQKizvcPX6LPGZTY7q5G-3" value="" style="rounded=1;whiteSpace=wrap;html=1;" vertex="1" parent="1">
          <mxGeometry x="320" y="360" width="410" height="60" as="geometry" />
        </mxCell>
        <mxCell id="EQKizvcPX6LPGZTY7q5G-5" value="recall(74ms)" style="rounded=1;whiteSpace=wrap;html=1;" vertex="1" parent="1">
          <mxGeometry x="60" y="360" width="240" height="60" as="geometry" />
        </mxCell>
        <mxCell id="EQKizvcPX6LPGZTY7q5G-6" value="mode(121ms)l" style="text;html=1;strokeColor=none;fillColor=none;align=center;verticalAlign=middle;whiteSpace=wrap;rounded=0;" vertex="1" parent="1">
          <mxGeometry x="500" y="380" width="40" height="20" as="geometry" />
        </mxCell>
        <mxCell id="EQKizvcPX6LPGZTY7q5G-9" value="" style="rounded=0;whiteSpace=wrap;html=1;" vertex="1" parent="1">
          <mxGeometry x="320" y="490" width="410" height="60" as="geometry" />
        </mxCell>
        <mxCell id="EQKizvcPX6LPGZTY7q5G-12" value="" style="shape=flexArrow;endArrow=classic;html=1;exitX=0.5;exitY=1;exitDx=0;exitDy=0;entryX=0.5;entryY=0;entryDx=0;entryDy=0;" edge="1" parent="1" source="EQKizvcPX6LPGZTY7q5G-3" target="EQKizvcPX6LPGZTY7q5G-9">
          <mxGeometry width="50" height="50" relative="1" as="geometry">
            <mxPoint x="190" y="540" as="sourcePoint" />
            <mxPoint x="240" y="490" as="targetPoint" />
          </mxGeometry>
        </mxCell>
        <mxCell id="EQKizvcPX6LPGZTY7q5G-13" value="getFeature(39ms)" style="rounded=1;whiteSpace=wrap;html=1;" vertex="1" parent="1">
          <mxGeometry x="330" y="490" width="130" height="60" as="geometry" />
        </mxCell>
        <mxCell id="EQKizvcPX6LPGZTY7q5G-14" value="predict(78ms)" style="rounded=1;whiteSpace=wrap;html=1;" vertex="1" parent="1">
          <mxGeometry x="480" y="490" width="230" height="60" as="geometry" />
        </mxCell>
        <mxCell id="EQKizvcPX6LPGZTY7q5G-15" value="" style="rounded=0;whiteSpace=wrap;html=1;" vertex="1" parent="1">
          <mxGeometry x="476" y="600" width="240" height="150" as="geometry" />
        </mxCell>
        <mxCell id="EQKizvcPX6LPGZTY7q5G-16" value="" style="shape=flexArrow;endArrow=classic;html=1;exitX=0.5;exitY=1;exitDx=0;exitDy=0;" edge="1" parent="1" source="EQKizvcPX6LPGZTY7q5G-14" target="EQKizvcPX6LPGZTY7q5G-15">
          <mxGeometry width="50" height="50" relative="1" as="geometry">
            <mxPoint x="390" y="420" as="sourcePoint" />
            <mxPoint x="440" y="370" as="targetPoint" />
          </mxGeometry>
        </mxCell>
        <mxCell id="EQKizvcPX6LPGZTY7q5G-17" value="buildProto(20ms)" style="rounded=1;whiteSpace=wrap;html=1;" vertex="1" parent="1">
          <mxGeometry x="490" y="600" width="100" height="60" as="geometry" />
        </mxCell>
        <mxCell id="EQKizvcPX6LPGZTY7q5G-18" value="async_call" style="rounded=1;whiteSpace=wrap;html=1;" vertex="1" parent="1">
          <mxGeometry x="620" y="660" width="80" height="60" as="geometry" />
        </mxCell>
        <mxCell id="EQKizvcPX6LPGZTY7q5G-19" value="buildproto" style="rounded=1;whiteSpace=wrap;html=1;" vertex="1" parent="1">
          <mxGeometry x="530" y="660" width="80" height="60" as="geometry" />
        </mxCell>
        <mxCell id="EQKizvcPX6LPGZTY7q5G-20" value="async_call" style="rounded=1;whiteSpace=wrap;html=1;" vertex="1" parent="1">
          <mxGeometry x="590" y="600" width="80" height="60" as="geometry" />
        </mxCell>
        <mxCell id="EQKizvcPX6LPGZTY7q5G-21" value="" style="rounded=0;whiteSpace=wrap;html=1;" vertex="1" parent="1">
          <mxGeometry x="330" y="600" width="130" height="60" as="geometry" />
        </mxCell>
        <mxCell id="EQKizvcPX6LPGZTY7q5G-22" value="" style="shape=flexArrow;endArrow=classic;html=1;exitX=0.5;exitY=1;exitDx=0;exitDy=0;entryX=0.5;entryY=0;entryDx=0;entryDy=0;" edge="1" parent="1" source="EQKizvcPX6LPGZTY7q5G-13" target="EQKizvcPX6LPGZTY7q5G-21">
          <mxGeometry width="50" height="50" relative="1" as="geometry">
            <mxPoint x="520" y="580" as="sourcePoint" />
            <mxPoint x="570" y="530" as="targetPoint" />
          </mxGeometry>
        </mxCell>
        <mxCell id="EQKizvcPX6LPGZTY7q5G-23" value="itemFeature" style="rounded=1;whiteSpace=wrap;html=1;" vertex="1" parent="1">
          <mxGeometry x="374" y="600" width="80" height="60" as="geometry" />
        </mxCell>
        <mxCell id="EQKizvcPX6LPGZTY7q5G-24" value="user" style="rounded=1;whiteSpace=wrap;html=1;" vertex="1" parent="1">
          <mxGeometry x="340" y="600" width="20" height="60" as="geometry" />
        </mxCell>
      </root>
    </mxGraphModel>
  </diagram>
</mxfile>
